<mxfile host="65bd71144e">
    <diagram id="zaFalzbAz9mBfhYVqgRj" name="Page-1">
        <mxGraphModel dx="856" dy="563" grid="1" gridSize="10" guides="1" tooltips="1" connect="1" arrows="1" fold="1" page="1" pageScale="1" pageWidth="827" pageHeight="1169" math="0" shadow="0">
            <root>
                <mxCell id="0"/>
                <mxCell id="1" parent="0"/>
                <mxCell id="2" value="ブラウザ" style="shape=umlLifeline;perimeter=lifelinePerimeter;whiteSpace=wrap;html=1;container=1;collapsible=0;recursiveResize=0;outlineConnect=0;" vertex="1" parent="1">
                    <mxGeometry x="80" y="120" width="100" height="480" as="geometry"/>
                </mxCell>
                <mxCell id="5" value="" style="html=1;points=[];perimeter=orthogonalPerimeter;" vertex="1" parent="2">
                    <mxGeometry x="45" y="80" width="10" height="80" as="geometry"/>
                </mxCell>
                <mxCell id="13" value="" style="html=1;points=[];perimeter=orthogonalPerimeter;" vertex="1" parent="2">
                    <mxGeometry x="45" y="200" width="10" height="40" as="geometry"/>
                </mxCell>
                <mxCell id="14" value="トークンをlocalStorage&lt;br&gt;に保存する" style="edgeStyle=orthogonalEdgeStyle;html=1;align=left;spacingLeft=2;endArrow=block;rounded=0;exitX=1.033;exitY=0.264;exitDx=0;exitDy=0;exitPerimeter=0;" edge="1" parent="2" source="13">
                    <mxGeometry relative="1" as="geometry">
                        <mxPoint x="45" y="180" as="sourcePoint"/>
                        <Array as="points">
                            <mxPoint x="70" y="211"/>
                            <mxPoint x="70" y="230"/>
                        </Array>
                        <mxPoint x="55" y="230" as="targetPoint"/>
                    </mxGeometry>
                </mxCell>
                <mxCell id="15" value="" style="html=1;points=[];perimeter=orthogonalPerimeter;" vertex="1" parent="2">
                    <mxGeometry x="45" y="280" width="10" height="160" as="geometry"/>
                </mxCell>
                <mxCell id="3" value="Cognito" style="shape=umlLifeline;perimeter=lifelinePerimeter;whiteSpace=wrap;html=1;container=1;collapsible=0;recursiveResize=0;outlineConnect=0;" vertex="1" parent="1">
                    <mxGeometry x="240" y="120" width="100" height="480" as="geometry"/>
                </mxCell>
                <mxCell id="8" value="" style="html=1;points=[];perimeter=orthogonalPerimeter;" vertex="1" parent="3">
                    <mxGeometry x="45" y="80" width="10" height="80" as="geometry"/>
                </mxCell>
                <mxCell id="22" value="" style="html=1;points=[];perimeter=orthogonalPerimeter;" vertex="1" parent="3">
                    <mxGeometry x="45" y="320" width="10" height="80" as="geometry"/>
                </mxCell>
                <mxCell id="4" value="サーバ" style="shape=umlLifeline;perimeter=lifelinePerimeter;whiteSpace=wrap;html=1;container=1;collapsible=0;recursiveResize=0;outlineConnect=0;" vertex="1" parent="1">
                    <mxGeometry x="400" y="120" width="100" height="480" as="geometry"/>
                </mxCell>
                <mxCell id="16" value="" style="html=1;points=[];perimeter=orthogonalPerimeter;" vertex="1" parent="4">
                    <mxGeometry x="45" y="280" width="10" height="160" as="geometry"/>
                </mxCell>
                <mxCell id="11" value="サインイン(SRP方式)" style="html=1;verticalAlign=bottom;endArrow=block;exitX=0.944;exitY=0.238;exitDx=0;exitDy=0;exitPerimeter=0;entryX=-0.108;entryY=0.251;entryDx=0;entryDy=0;entryPerimeter=0;" edge="1" parent="1" source="5" target="8">
                    <mxGeometry width="80" relative="1" as="geometry">
                        <mxPoint x="140" y="220" as="sourcePoint"/>
                        <mxPoint x="220" y="220" as="targetPoint"/>
                    </mxGeometry>
                </mxCell>
                <mxCell id="12" value="tokens" style="html=1;verticalAlign=bottom;endArrow=open;dashed=1;endSize=8;exitX=-0.005;exitY=0.873;exitDx=0;exitDy=0;exitPerimeter=0;entryX=1.036;entryY=0.866;entryDx=0;entryDy=0;entryPerimeter=0;" edge="1" parent="1" source="8" target="5">
                    <mxGeometry relative="1" as="geometry">
                        <mxPoint x="220" y="270" as="sourcePoint"/>
                        <mxPoint x="140" y="270" as="targetPoint"/>
                    </mxGeometry>
                </mxCell>
                <mxCell id="17" value="[POST] idToken, refreshToken" style="html=1;verticalAlign=bottom;endArrow=block;exitX=0.947;exitY=0.137;exitDx=0;exitDy=0;exitPerimeter=0;entryX=0.09;entryY=0.127;entryDx=0;entryDy=0;entryPerimeter=0;" edge="1" parent="1">
                    <mxGeometry width="80" relative="1" as="geometry">
                        <mxPoint x="134.47000000000003" y="410.91999999999996" as="sourcePoint"/>
                        <mxPoint x="445.9" y="409.32000000000005" as="targetPoint"/>
                    </mxGeometry>
                </mxCell>
                <mxCell id="23" value="tokenを検証する" style="html=1;verticalAlign=bottom;endArrow=block;entryX=1.004;entryY=0.246;entryDx=0;entryDy=0;entryPerimeter=0;exitX=-0.213;exitY=0.375;exitDx=0;exitDy=0;exitPerimeter=0;" edge="1" parent="1" source="16" target="22">
                    <mxGeometry width="80" relative="1" as="geometry">
                        <mxPoint x="330" y="460" as="sourcePoint"/>
                        <mxPoint x="410" y="460" as="targetPoint"/>
                    </mxGeometry>
                </mxCell>
                <mxCell id="24" value="return" style="html=1;verticalAlign=bottom;endArrow=open;dashed=1;endSize=8;exitX=1.004;exitY=0.876;exitDx=0;exitDy=0;exitPerimeter=0;entryX=0.019;entryY=0.69;entryDx=0;entryDy=0;entryPerimeter=0;" edge="1" parent="1" source="22" target="16">
                    <mxGeometry relative="1" as="geometry">
                        <mxPoint x="410" y="510" as="sourcePoint"/>
                        <mxPoint x="330" y="510" as="targetPoint"/>
                    </mxGeometry>
                </mxCell>
                <mxCell id="25" value="[Response Header Set-Cookie] idToken, refreshToken" style="html=1;verticalAlign=bottom;endArrow=open;dashed=1;endSize=8;exitX=-0.013;exitY=0.938;exitDx=0;exitDy=0;exitPerimeter=0;entryX=1.008;entryY=0.94;entryDx=0;entryDy=0;entryPerimeter=0;" edge="1" parent="1" source="16" target="15">
                    <mxGeometry relative="1" as="geometry">
                        <mxPoint x="220" y="550" as="sourcePoint"/>
                        <mxPoint x="140" y="550" as="targetPoint"/>
                    </mxGeometry>
                </mxCell>
            </root>
        </mxGraphModel>
    </diagram>
</mxfile>